<svg xmlns="http://www.w3.org/2000/svg" height="263.48" width="263.5" viewBox="0 0 263.5 263.48"><title>Katerkamp dot DE Logo</title><path fill="#fff" d="M0-1.29h266.57v266.56H0z"/><path d="M8.25 75.97c1.76-6.3 5.88-21.72 12.36-46.59 13.32 1.02 26.65 2.07 39.87 3.2 13.43 1.11 26.85 2.17 40.28 3.2-6.85 11.94-10.88 22.9-12.09 32.76-1.1 9.82-1.66 17.53-1.66 23.1 0 5.55.09 9.95.28 13.19 9.53-9.81 18.93-21.32 28.23-34.35 9.25-13.15 18.5-26.85 27.83-41.06 18.32 28.82 36.12 52.5 53.5 70.87l-49.35 23.29 48.95 87.64a5408.76 5408.76 0 0 0-44.41 26.85c-14.36-36.52-28.63-68.5-43.04-96.33l-21.32 10.13a81.3 81.3 0 0 1-4.16 17.2c-1.95 5.2-5.47 9.68-10.55 13.47-5.09 3.71-9.67 7.68-13.74 11.94 6.3 2.13 11.34 3.2 15.13 3.2 10.08 0 20.13-.93 30.2-2.78l-23.69 43.23c-20.33-5.92-45-9.62-74.03-11.1 18.8-16.46 30-38.69 33.56-66.52a657 657 0 0 0 5.55-88.08c-1.76-.1-4.13-.14-7.09-.14-4.54 0-14.84 1.2-30.99 3.62m80.54 58.23c20.14-8.79 38.1-18.56 54.1-29.22-6.2-4.9-11.68-11.84-16.4-20.72l-37.9 46.39c0 1.57.05 2.82.14 3.75" fill="#64646b" stroke="#000" stroke-width="1.97"/><g stroke="#000" stroke-width="1.48"><path transform="matrix(1.3861 .01109 -.01109 1.38602 -55.31 -17.2)" d="M227.22 163.97L208.4 182.8l-18.83-18.83 18.83-18.83z" fill="#f6d100"/><path transform="matrix(1.3861 .01109 -.01109 1.38602 -54.87 -72.93)" d="M227.22 163.97L208.4 182.8l-18.83-18.83 18.83-18.83z" fill="#e2001a"/><path transform="matrix(1.3861 .01109 -.01109 1.38602 -54.87 -129.55)" d="M227.22 163.97L208.4 182.8l-18.83-18.83 18.83-18.83z"/></g></svg>